<svg width="1695" height="530" viewBox="0 0 1695 530" fill="none" xmlns="http://www.w3.org/2000/svg">
<rect width="1695" height="530" fill="#EEEEEE"/>
<path d="M314.3 207V196.668H304.388V200.028H310.66C310.436 201.428 309.008 203.892 305.34 203.892C302.008 203.892 299.068 201.568 299.068 197.088C299.068 192.384 302.316 190.34 305.312 190.34C308.532 190.34 310.184 192.384 310.688 194.148L314.384 192.832C313.404 189.78 310.52 186.728 305.312 186.728C299.936 186.728 295.148 190.676 295.148 197.088C295.148 203.5 299.712 207.42 305.06 207.42C308.056 207.42 310.016 206.076 310.912 204.732L311.164 207H314.3ZM326.179 193.168C325.899 193.14 325.619 193.112 325.311 193.112C324.135 193.112 322.231 193.448 321.391 195.268V193.224H317.779V207H321.503V200.7C321.503 197.732 323.155 196.808 325.059 196.808C325.395 196.808 325.759 196.836 326.179 196.92V193.168ZM331.382 198.544C331.466 197.284 332.53 195.828 334.462 195.828C336.59 195.828 337.486 197.172 337.542 198.544H331.382ZM337.906 202.128C337.458 203.36 336.506 204.228 334.77 204.228C332.922 204.228 331.382 202.912 331.298 201.092H341.154C341.154 201.036 341.21 200.476 341.21 199.944C341.21 195.52 338.662 192.804 334.406 192.804C330.878 192.804 327.63 195.66 327.63 200.056C327.63 204.704 330.962 207.42 334.742 207.42C338.13 207.42 340.314 205.432 341.014 203.052L337.906 202.128ZM347.105 198.544C347.189 197.284 348.253 195.828 350.185 195.828C352.313 195.828 353.209 197.172 353.265 198.544H347.105ZM353.629 202.128C353.181 203.36 352.229 204.228 350.493 204.228C348.645 204.228 347.105 202.912 347.021 201.092H356.877C356.877 201.036 356.933 200.476 356.933 199.944C356.933 195.52 354.385 192.804 350.129 192.804C346.601 192.804 343.353 195.66 343.353 200.056C343.353 204.704 346.685 207.42 350.465 207.42C353.853 207.42 356.037 205.432 356.737 203.052L353.629 202.128ZM363.64 199.076C363.64 197.48 364.592 196.22 366.216 196.22C368.008 196.22 368.764 197.424 368.764 198.964V207H372.488V198.32C372.488 195.296 370.92 192.86 367.504 192.86C366.02 192.86 364.368 193.504 363.528 194.932V193.224H359.916V207H363.64V199.076ZM381.772 187.148H378.776V190.704L375.5 189.612L374.604 192.356L377.908 193.42L375.864 196.192L378.188 197.928L380.26 195.1L382.388 197.928L384.712 196.22L382.64 193.42L385.944 192.356L385.02 189.612L381.772 190.704V187.148ZM304.248 251H306.628L307.664 245.792H311.976V243.664H308.056L309.036 238.792H313.376V236.664H309.428L310.52 231.148H308.14L307.02 236.664H302.904L304.024 231.148H301.672L300.524 236.664H296.436V238.792H300.188L299.18 243.664H295.064V245.792H298.816L297.78 251H300.132L301.168 245.792H305.284L304.248 251ZM302.54 238.792H306.684L305.648 243.664H301.56L302.54 238.792ZM322.265 251V231.148H319.857C319.437 233.108 317.701 234.508 315.181 234.564V236.496H319.577V251H322.265ZM329.81 248.564V233.584H333.926C337.594 233.584 340.618 236.104 340.618 241.116C340.618 246.1 337.538 248.564 333.87 248.564H329.81ZM333.954 251C338.994 251 343.446 247.612 343.446 241.116C343.446 234.592 339.05 231.148 334.01 231.148H327.066V251H333.954ZM347.519 231.148V251H354.463C358.103 251 360.595 248.732 360.595 245.596C360.595 243.384 359.279 241.368 357.011 240.808C358.747 240.164 359.979 238.652 359.979 236.524C359.979 233.388 357.767 231.148 353.987 231.148H347.519ZM350.263 239.828V233.556H353.567C355.835 233.556 357.207 234.788 357.207 236.664C357.207 238.512 355.891 239.828 353.679 239.828H350.263ZM350.263 248.592V242.18H354.183C356.591 242.18 357.795 243.524 357.795 245.428C357.795 247.36 356.283 248.592 354.071 248.592H350.263ZM375.301 241.368C375.161 246.352 372.781 248.956 368.917 248.956C367.265 248.956 365.613 248.312 364.801 247.5L363.933 249.656C364.941 250.692 367.041 251.364 368.973 251.364C374.741 251.364 377.933 247.612 377.933 240.304C377.933 234.088 374.881 230.784 370.485 230.784C366.397 230.812 363.457 233.556 363.457 237.532C363.457 241.648 366.537 244.084 370.093 244.084C372.333 244.084 374.377 242.88 375.301 241.368ZM374.713 237.364C374.713 240.024 372.865 241.76 370.401 241.76C367.965 241.76 366.061 240.108 366.061 237.42C366.061 234.816 367.965 233.164 370.373 233.164C372.781 233.164 374.685 234.788 374.713 237.364ZM380.541 245.484C380.821 248.676 383.565 251.364 387.541 251.364C391.937 251.364 394.653 248.34 394.653 244.672C394.653 240.612 392.021 238.092 388.073 238.092C386.617 238.092 384.825 238.624 383.845 239.744L385.133 233.668H393.729V231.148H383.257L381.101 241.312L383.593 242.236C384.461 241.116 385.861 240.36 387.541 240.36C390.061 240.36 391.937 241.956 391.937 244.7C391.937 247.192 390.145 248.956 387.541 248.956C384.965 248.956 383.257 247.136 383.033 244.868L380.541 245.484ZM396.806 246.548H406.326V251H409.014V246.548H412.43V244H409.014V231.148H405.542L396.806 243.44V246.548ZM406.326 244H399.382L406.326 234.144V244ZM306.936 295H310.128L305.396 286.684C308.392 286.124 310.212 283.912 310.212 281.056C310.212 277.78 307.888 275.148 304.136 275.148H296.66V295H299.432V286.88H302.4L306.936 295ZM299.432 284.416V277.612H303.632C305.872 277.612 307.384 278.956 307.384 281.056C307.384 283.1 305.872 284.416 303.632 284.416H299.432ZM321.297 283.016C321.157 283.016 320.849 283.044 320.653 283.128L326.617 277.416V275.148H313.401V277.668H323.145L317.153 283.436L318.357 285.424C318.889 285.2 319.589 285.032 320.205 285.032C322.641 285.032 324.433 286.488 324.433 288.98C324.433 291.304 322.641 292.956 320.037 292.956C317.545 292.956 315.585 291.22 315.473 288.588L312.869 289.176C313.093 292.648 315.809 295.364 320.065 295.364C324.321 295.364 327.149 292.48 327.149 289.036C327.149 285.368 324.433 283.1 321.297 283.016ZM330.157 285.088C330.157 289.708 331.725 295.364 337.829 295.364C343.961 295.364 345.501 289.736 345.501 285.088C345.501 280.384 343.905 274.784 337.829 274.784C331.753 274.784 330.157 280.384 330.157 285.088ZM342.785 285.088C342.785 289.064 341.721 292.928 337.829 292.928C333.937 292.928 332.901 289.064 332.901 285.088C332.901 281.084 333.909 277.248 337.829 277.248C341.721 277.248 342.785 281.112 342.785 285.088ZM373.926 295V285.284H364.434V287.748H371.322C371.21 289.792 369.614 292.928 365.19 292.928C361.634 292.928 358.274 290.324 358.274 285.06C358.274 279.796 361.746 277.248 365.302 277.248C368.382 277.248 370.706 278.928 371.602 281.784L374.094 280.72C372.946 277.136 369.614 274.728 365.302 274.728C360.402 274.728 355.474 278.34 355.474 285.06C355.474 291.78 360.122 295.42 365.106 295.42C368.438 295.42 370.594 293.768 371.462 292.2L371.714 295H373.926ZM390.822 295V292.48H380.434C380.714 291.192 381.582 290.044 382.73 289.316L386.818 286.796C389.142 285.34 390.626 283.352 390.626 280.804C390.626 277.5 388.19 274.784 384.046 274.784C379.734 274.784 377.27 277.724 377.27 281.168C377.27 281.532 377.326 282.092 377.382 282.4L379.986 282.512C379.902 282.148 379.874 281.784 379.874 281.476C379.874 278.9 381.526 277.192 384.13 277.192C386.482 277.192 387.938 278.844 387.938 280.86C387.938 282.624 386.93 283.884 384.998 285.116L381.386 287.384C378.25 289.288 377.214 292.06 377.158 295H390.822ZM400.113 295V275.148H397.705C397.285 277.108 395.549 278.508 393.029 278.564V280.496H397.425V295H400.113ZM403.346 289.484C403.626 292.676 406.37 295.364 410.346 295.364C414.742 295.364 417.458 292.34 417.458 288.672C417.458 284.612 414.826 282.092 410.878 282.092C409.422 282.092 407.63 282.624 406.65 283.744L407.938 277.668H416.534V275.148H406.062L403.906 285.312L406.398 286.236C407.266 285.116 408.666 284.36 410.346 284.36C412.866 284.36 414.742 285.956 414.742 288.7C414.742 291.192 412.95 292.956 410.346 292.956C407.77 292.956 406.062 291.136 405.838 288.868L403.346 289.484ZM428.457 275.148V295H435.401C439.041 295 441.533 292.732 441.533 289.596C441.533 287.384 440.217 285.368 437.949 284.808C439.685 284.164 440.917 282.652 440.917 280.524C440.917 277.388 438.705 275.148 434.925 275.148H428.457ZM431.201 283.828V277.556H434.505C436.773 277.556 438.145 278.788 438.145 280.664C438.145 282.512 436.829 283.828 434.617 283.828H431.201ZM431.201 292.592V286.18H435.121C437.529 286.18 438.733 287.524 438.733 289.428C438.733 291.36 437.221 292.592 435.009 292.592H431.201ZM456.239 285.368C456.099 290.352 453.719 292.956 449.855 292.956C448.203 292.956 446.551 292.312 445.739 291.5L444.871 293.656C445.879 294.692 447.979 295.364 449.911 295.364C455.679 295.364 458.871 291.612 458.871 284.304C458.871 278.088 455.819 274.784 451.423 274.784C447.335 274.812 444.395 277.556 444.395 281.532C444.395 285.648 447.475 288.084 451.031 288.084C453.271 288.084 455.315 286.88 456.239 285.368ZM455.651 281.364C455.651 284.024 453.803 285.76 451.339 285.76C448.903 285.76 446.999 284.108 446.999 281.42C446.999 278.816 448.903 277.164 451.311 277.164C453.719 277.164 455.623 278.788 455.651 281.364ZM464.475 285.228C464.783 280.664 467.331 277.22 471.923 277.22C473.407 277.22 474.611 277.64 475.479 278.116L476.263 275.82C475.367 275.232 473.911 274.784 472.063 274.784C466.351 274.784 461.871 278.732 461.871 286.264C461.871 292.06 465.147 295.364 469.487 295.364C473.463 295.364 476.655 292.564 476.655 288.588C476.655 284.612 473.939 281.924 470.159 281.924C467.303 281.924 465.259 283.352 464.475 285.228ZM465.007 288.644C465.007 286.068 467.023 284.248 469.515 284.248C472.007 284.248 473.967 285.928 473.967 288.644C473.967 291.276 471.923 293.012 469.459 293.012C467.079 293.012 465.007 291.248 465.007 288.644ZM305.228 339.42C309.792 339.42 312.928 336.76 313.992 333.036L311.556 332.14C310.744 334.856 308.616 336.9 305.228 336.9C301.616 336.9 298.172 334.24 298.172 329.06C298.172 323.88 301.616 321.248 305.228 321.248C308.476 321.248 310.66 322.928 311.416 325.924L313.964 325.028C312.956 321.192 309.764 318.728 305.228 318.728C300.3 318.728 295.372 322.424 295.372 329.06C295.372 335.696 300.104 339.42 305.228 339.42ZM323.457 329.928C326.285 329.928 327.769 331.552 327.769 333.512C327.769 335.444 326.201 337.068 323.457 337.068C320.713 337.068 319.145 335.444 319.145 333.512C319.145 331.552 320.629 329.928 323.457 329.928ZM323.457 339.364C327.741 339.364 330.429 336.984 330.429 333.764C330.429 331.44 328.861 329.48 326.481 328.836C328.665 328.192 330.037 326.26 330.037 324.216C330.037 321.08 327.377 318.784 323.457 318.784C319.537 318.784 316.877 321.08 316.877 324.216C316.877 326.26 318.249 328.192 320.405 328.836C318.053 329.48 316.485 331.44 316.485 333.764C316.485 336.984 319.173 339.364 323.457 339.364ZM323.457 327.772C321.077 327.744 319.565 326.316 319.565 324.384C319.565 322.536 320.993 321.108 323.457 321.108C325.921 321.108 327.349 322.536 327.349 324.384C327.349 326.316 325.865 327.744 323.457 327.772ZM333.52 329.088C333.52 333.708 335.088 339.364 341.192 339.364C347.324 339.364 348.864 333.736 348.864 329.088C348.864 324.384 347.268 318.784 341.192 318.784C335.116 318.784 333.52 324.384 333.52 329.088ZM346.148 329.088C346.148 333.064 345.084 336.928 341.192 336.928C337.3 336.928 336.264 333.064 336.264 329.088C336.264 325.084 337.272 321.248 341.192 321.248C345.084 321.248 346.148 325.112 346.148 329.088ZM381.573 339V319.148H377.905L370.849 335.304L363.849 319.148H360.125V339H362.841V323.544L369.561 339H372.081L378.857 323.544V339H381.573ZM385.774 329.088C385.774 333.708 387.342 339.364 393.446 339.364C399.578 339.364 401.118 333.736 401.118 329.088C401.118 324.384 399.522 318.784 393.446 318.784C387.37 318.784 385.774 324.384 385.774 329.088ZM398.402 329.088C398.402 333.064 397.338 336.928 393.446 336.928C389.554 336.928 388.518 333.064 388.518 329.088C388.518 325.084 389.526 321.248 393.446 321.248C397.338 321.248 398.402 325.112 398.402 329.088ZM416.35 330.516V339H419.094V330.516L426.094 319.148H422.958L417.806 327.996L412.654 319.148H409.35L416.35 330.516ZM434.528 329.928C437.356 329.928 438.84 331.552 438.84 333.512C438.84 335.444 437.272 337.068 434.528 337.068C431.784 337.068 430.216 335.444 430.216 333.512C430.216 331.552 431.7 329.928 434.528 329.928ZM434.528 339.364C438.812 339.364 441.5 336.984 441.5 333.764C441.5 331.44 439.932 329.48 437.552 328.836C439.736 328.192 441.108 326.26 441.108 324.216C441.108 321.08 438.448 318.784 434.528 318.784C430.608 318.784 427.948 321.08 427.948 324.216C427.948 326.26 429.32 328.192 431.476 328.836C429.124 329.48 427.556 331.44 427.556 333.764C427.556 336.984 430.244 339.364 434.528 339.364ZM434.528 327.772C432.148 327.744 430.636 326.316 430.636 324.384C430.636 322.536 432.064 321.108 434.528 321.108C436.992 321.108 438.42 322.536 438.42 324.384C438.42 326.316 436.936 327.744 434.528 327.772ZM444.591 329.088C444.591 333.708 446.159 339.364 452.263 339.364C458.395 339.364 459.935 333.736 459.935 329.088C459.935 324.384 458.339 318.784 452.263 318.784C446.187 318.784 444.591 324.384 444.591 329.088ZM457.219 329.088C457.219 333.064 456.155 336.928 452.263 336.928C448.371 336.928 447.335 333.064 447.335 329.088C447.335 325.084 448.343 321.248 452.263 321.248C456.155 321.248 457.219 325.112 457.219 329.088ZM483.487 339H486.959L478.587 327.996L486.847 319.148H483.235L473.939 329.368V319.148H471.195V339H473.939V333.008L476.767 329.984L483.487 339ZM488.642 329.088C488.642 333.708 490.21 339.364 496.314 339.364C502.446 339.364 503.986 333.736 503.986 329.088C503.986 324.384 502.39 318.784 496.314 318.784C490.238 318.784 488.642 324.384 488.642 329.088ZM501.27 329.088C501.27 333.064 500.206 336.928 496.314 336.928C492.422 336.928 491.386 333.064 491.386 329.088C491.386 325.084 492.394 321.248 496.314 321.248C500.206 321.248 501.27 325.112 501.27 329.088Z" fill="#7F7F7F"/>
<path d="M899.084 200.868L894.66 187.148H890.656L886.26 200.812L882.62 187.148H878.532L884.048 207H888.08L892.616 192.86L897.152 207H901.128L906.616 187.148H902.668L899.084 200.868ZM912.612 198.908C912.696 197.396 913.62 196.22 915.188 196.22C916.98 196.22 917.736 197.424 917.736 198.964V207H921.46V198.32C921.46 195.296 919.836 192.86 916.336 192.86C915.02 192.86 913.508 193.308 912.612 194.372V186.728H908.888V207H912.612V198.908ZM928.855 207V193.224H925.131V207H928.855ZM924.683 188.716C924.683 189.948 925.719 190.984 926.979 190.984C928.267 190.984 929.275 189.948 929.275 188.716C929.275 187.428 928.267 186.392 926.979 186.392C925.719 186.392 924.683 187.428 924.683 188.716ZM937.494 189.108H934.134V191.04C934.134 192.272 933.462 193.224 932.006 193.224H931.306V196.528H933.798V202.94C933.798 205.6 935.478 207.196 938.166 207.196C939.258 207.196 939.93 207 940.266 206.86V203.78C940.07 203.836 939.566 203.892 939.118 203.892C938.054 203.892 937.494 203.5 937.494 202.296V196.528H940.266V193.224H937.494V189.108ZM946.035 198.544C946.119 197.284 947.183 195.828 949.115 195.828C951.243 195.828 952.139 197.172 952.195 198.544H946.035ZM952.559 202.128C952.111 203.36 951.159 204.228 949.423 204.228C947.575 204.228 946.035 202.912 945.951 201.092H955.807C955.807 201.036 955.863 200.476 955.863 199.944C955.863 195.52 953.315 192.804 949.059 192.804C945.531 192.804 942.283 195.66 942.283 200.056C942.283 204.704 945.615 207.42 949.395 207.42C952.783 207.42 954.967 205.432 955.667 203.052L952.559 202.128ZM888.248 251H890.628L891.664 245.792H895.976V243.664H892.056L893.036 238.792H897.376V236.664H893.428L894.52 231.148H892.14L891.02 236.664H886.904L888.024 231.148H885.672L884.524 236.664H880.436V238.792H884.188L883.18 243.664H879.064V245.792H882.816L881.78 251H884.132L885.168 245.792H889.284L888.248 251ZM886.54 238.792H890.684L889.648 243.664H885.56L886.54 238.792ZM903.857 251V242.656H912.313V240.08H903.857V233.696H913.181V231.148H901.113V251H903.857ZM919.853 251V242.656H928.309V240.08H919.853V233.696H929.177V231.148H917.109V251H919.853ZM935.849 251V242.656H944.305V240.08H935.849V233.696H945.173V231.148H933.105V251H935.849ZM951.845 251V242.656H960.301V240.08H951.845V233.696H961.169V231.148H949.101V251H951.845ZM967.842 251V242.656H976.298V240.08H967.842V233.696H977.166V231.148H965.098V251H967.842ZM983.838 251V242.656H992.294V240.08H983.838V233.696H993.162V231.148H981.094V251H983.838ZM890.936 295H894.128L889.396 286.684C892.392 286.124 894.212 283.912 894.212 281.056C894.212 277.78 891.888 275.148 888.136 275.148H880.66V295H883.432V286.88H886.4L890.936 295ZM883.432 284.416V277.612H887.632C889.872 277.612 891.384 278.956 891.384 281.056C891.384 283.1 889.872 284.416 887.632 284.416H883.432ZM910.701 295V292.48H900.313C900.593 291.192 901.461 290.044 902.609 289.316L906.697 286.796C909.021 285.34 910.505 283.352 910.505 280.804C910.505 277.5 908.069 274.784 903.925 274.784C899.613 274.784 897.149 277.724 897.149 281.168C897.149 281.532 897.205 282.092 897.261 282.4L899.865 282.512C899.781 282.148 899.753 281.784 899.753 281.476C899.753 278.9 901.405 277.192 904.009 277.192C906.361 277.192 907.817 278.844 907.817 280.86C907.817 282.624 906.809 283.884 904.877 285.116L901.265 287.384C898.129 289.288 897.093 292.06 897.037 295H910.701ZM913.272 289.484C913.552 292.676 916.296 295.364 920.272 295.364C924.668 295.364 927.384 292.34 927.384 288.672C927.384 284.612 924.752 282.092 920.804 282.092C919.348 282.092 917.556 282.624 916.576 283.744L917.864 277.668H926.46V275.148H915.988L913.832 285.312L916.324 286.236C917.192 285.116 918.592 284.36 920.272 284.36C922.792 284.36 924.668 285.956 924.668 288.7C924.668 291.192 922.876 292.956 920.272 292.956C917.696 292.956 915.988 291.136 915.764 288.868L913.272 289.484ZM929.76 289.484C930.04 292.676 932.784 295.364 936.76 295.364C941.156 295.364 943.872 292.34 943.872 288.672C943.872 284.612 941.24 282.092 937.292 282.092C935.836 282.092 934.044 282.624 933.064 283.744L934.352 277.668H942.948V275.148H932.476L930.32 285.312L932.812 286.236C933.68 285.116 935.08 284.36 936.76 284.36C939.28 284.36 941.156 285.956 941.156 288.7C941.156 291.192 939.364 292.956 936.76 292.956C934.184 292.956 932.476 291.136 932.252 288.868L929.76 289.484ZM972.035 295V285.284H962.543V287.748H969.431C969.319 289.792 967.723 292.928 963.299 292.928C959.743 292.928 956.383 290.324 956.383 285.06C956.383 279.796 959.855 277.248 963.411 277.248C966.491 277.248 968.815 278.928 969.711 281.784L972.203 280.72C971.055 277.136 967.723 274.728 963.411 274.728C958.511 274.728 953.583 278.34 953.583 285.06C953.583 291.78 958.231 295.42 963.215 295.42C966.547 295.42 968.703 293.768 969.571 292.2L969.823 295H972.035ZM988.932 295V292.48H978.544C978.824 291.192 979.692 290.044 980.84 289.316L984.928 286.796C987.252 285.34 988.736 283.352 988.736 280.804C988.736 277.5 986.3 274.784 982.156 274.784C977.844 274.784 975.38 277.724 975.38 281.168C975.38 281.532 975.436 282.092 975.492 282.4L978.096 282.512C978.012 282.148 977.984 281.784 977.984 281.476C977.984 278.9 979.636 277.192 982.24 277.192C984.592 277.192 986.048 278.844 986.048 280.86C986.048 282.624 985.04 283.884 983.108 285.116L979.496 287.384C976.36 289.288 975.324 292.06 975.268 295H988.932ZM991.502 289.484C991.782 292.676 994.526 295.364 998.502 295.364C1002.9 295.364 1005.61 292.34 1005.61 288.672C1005.61 284.612 1002.98 282.092 999.034 282.092C997.578 282.092 995.786 282.624 994.806 283.744L996.094 277.668H1004.69V275.148H994.218L992.062 285.312L994.554 286.236C995.422 285.116 996.822 284.36 998.502 284.36C1001.02 284.36 1002.9 285.956 1002.9 288.7C1002.9 291.192 1001.11 292.956 998.502 292.956C995.926 292.956 994.218 291.136 993.994 288.868L991.502 289.484ZM1007.99 289.484C1008.27 292.676 1011.01 295.364 1014.99 295.364C1019.39 295.364 1022.1 292.34 1022.1 288.672C1022.1 284.612 1019.47 282.092 1015.52 282.092C1014.07 282.092 1012.27 282.624 1011.29 283.744L1012.58 277.668H1021.18V275.148H1010.71L1008.55 285.312L1011.04 286.236C1011.91 285.116 1013.31 284.36 1014.99 284.36C1017.51 284.36 1019.39 285.956 1019.39 288.7C1019.39 291.192 1017.59 292.956 1014.99 292.956C1012.41 292.956 1010.71 291.136 1010.48 288.868L1007.99 289.484ZM1033.1 275.148V295H1040.05C1043.69 295 1046.18 292.732 1046.18 289.596C1046.18 287.384 1044.86 285.368 1042.59 284.808C1044.33 284.164 1045.56 282.652 1045.56 280.524C1045.56 277.388 1043.35 275.148 1039.57 275.148H1033.1ZM1035.85 283.828V277.556H1039.15C1041.42 277.556 1042.79 278.788 1042.79 280.664C1042.79 282.512 1041.47 283.828 1039.26 283.828H1035.85ZM1035.85 292.592V286.18H1039.77C1042.17 286.18 1043.38 287.524 1043.38 289.428C1043.38 291.36 1041.87 292.592 1039.65 292.592H1035.85ZM1062.79 295V292.48H1052.4C1052.68 291.192 1053.55 290.044 1054.7 289.316L1058.78 286.796C1061.11 285.34 1062.59 283.352 1062.59 280.804C1062.59 277.5 1060.16 274.784 1056.01 274.784C1051.7 274.784 1049.24 277.724 1049.24 281.168C1049.24 281.532 1049.29 282.092 1049.35 282.4L1051.95 282.512C1051.87 282.148 1051.84 281.784 1051.84 281.476C1051.84 278.9 1053.49 277.192 1056.1 277.192C1058.45 277.192 1059.9 278.844 1059.9 280.86C1059.9 282.624 1058.9 283.884 1056.96 285.116L1053.35 287.384C1050.22 289.288 1049.18 292.06 1049.12 295H1062.79ZM1065.36 289.484C1065.64 292.676 1068.38 295.364 1072.36 295.364C1076.75 295.364 1079.47 292.34 1079.47 288.672C1079.47 284.612 1076.84 282.092 1072.89 282.092C1071.43 282.092 1069.64 282.624 1068.66 283.744L1069.95 277.668H1078.55V275.148H1068.07L1065.92 285.312L1068.41 286.236C1069.28 285.116 1070.68 284.36 1072.36 284.36C1074.88 284.36 1076.75 285.956 1076.75 288.7C1076.75 291.192 1074.96 292.956 1072.36 292.956C1069.78 292.956 1068.07 291.136 1067.85 288.868L1065.36 289.484ZM1081.85 289.484C1082.13 292.676 1084.87 295.364 1088.85 295.364C1093.24 295.364 1095.96 292.34 1095.96 288.672C1095.96 284.612 1093.33 282.092 1089.38 282.092C1087.92 282.092 1086.13 282.624 1085.15 283.744L1086.44 277.668H1095.03V275.148H1084.56L1082.41 285.312L1084.9 286.236C1085.77 285.116 1087.17 284.36 1088.85 284.36C1091.37 284.36 1093.24 285.956 1093.24 288.7C1093.24 291.192 1091.45 292.956 1088.85 292.956C1086.27 292.956 1084.56 291.136 1084.34 288.868L1081.85 289.484ZM889.228 339.42C893.792 339.42 896.928 336.76 897.992 333.036L895.556 332.14C894.744 334.856 892.616 336.9 889.228 336.9C885.616 336.9 882.172 334.24 882.172 329.06C882.172 323.88 885.616 321.248 889.228 321.248C892.476 321.248 894.66 322.928 895.416 325.924L897.964 325.028C896.956 321.192 893.764 318.728 889.228 318.728C884.3 318.728 879.372 322.424 879.372 329.06C879.372 335.696 884.104 339.42 889.228 339.42ZM900.485 329.088C900.485 333.708 902.053 339.364 908.157 339.364C914.289 339.364 915.829 333.736 915.829 329.088C915.829 324.384 914.233 318.784 908.157 318.784C902.081 318.784 900.485 324.384 900.485 329.088ZM913.113 329.088C913.113 333.064 912.049 336.928 908.157 336.928C904.265 336.928 903.229 333.064 903.229 329.088C903.229 325.084 904.237 321.248 908.157 321.248C912.049 321.248 913.113 325.112 913.113 329.088ZM948.538 339V319.148H944.87L937.814 335.304L930.814 319.148H927.09V339H929.806V323.544L936.526 339H939.046L945.822 323.544V339H948.538ZM952.739 329.088C952.739 333.708 954.307 339.364 960.411 339.364C966.543 339.364 968.083 333.736 968.083 329.088C968.083 324.384 966.487 318.784 960.411 318.784C954.335 318.784 952.739 324.384 952.739 329.088ZM965.367 329.088C965.367 333.064 964.303 336.928 960.411 336.928C956.519 336.928 955.483 333.064 955.483 329.088C955.483 325.084 956.491 321.248 960.411 321.248C964.303 321.248 965.367 325.112 965.367 329.088ZM983.315 330.516V339H986.059V330.516L993.059 319.148H989.923L984.771 327.996L979.619 319.148H976.315L983.315 330.516ZM994.274 329.088C994.274 333.708 995.842 339.364 1001.95 339.364C1008.08 339.364 1009.62 333.736 1009.62 329.088C1009.62 324.384 1008.02 318.784 1001.95 318.784C995.87 318.784 994.274 324.384 994.274 329.088ZM1006.9 329.088C1006.9 333.064 1005.84 336.928 1001.95 336.928C998.054 336.928 997.018 333.064 997.018 329.088C997.018 325.084 998.026 321.248 1001.95 321.248C1005.84 321.248 1006.9 325.112 1006.9 329.088ZM1033.17 339H1036.64L1028.27 327.996L1036.53 319.148H1032.92L1023.62 329.368V319.148H1020.88V339H1023.62V333.008L1026.45 329.984L1033.17 339ZM1038.33 329.088C1038.33 333.708 1039.89 339.364 1046 339.364C1052.13 339.364 1053.67 333.736 1053.67 329.088C1053.67 324.384 1052.07 318.784 1046 318.784C1039.92 318.784 1038.33 324.384 1038.33 329.088ZM1050.95 329.088C1050.95 333.064 1049.89 336.928 1046 336.928C1042.11 336.928 1041.07 333.064 1041.07 329.088C1041.07 325.084 1042.08 321.248 1046 321.248C1049.89 321.248 1050.95 325.112 1050.95 329.088Z" fill="#7F7F7F"/>
<path d="M1445.32 187.148V207H1453C1456.72 207 1459.13 204.676 1459.13 201.456C1459.13 198.992 1457.56 197.228 1455.63 196.752C1457.28 196.192 1458.51 194.54 1458.51 192.496C1458.51 189.416 1456.33 187.148 1452.46 187.148H1445.32ZM1449.13 195.352V190.396H1451.85C1453.72 190.396 1454.7 191.348 1454.7 192.86C1454.7 194.372 1453.64 195.352 1451.88 195.352H1449.13ZM1449.13 203.78V198.544H1452.32C1454.26 198.544 1455.26 199.636 1455.26 201.204C1455.26 202.8 1454.14 203.78 1452.27 203.78H1449.13ZM1465.99 207V186.728H1462.27V207H1465.99ZM1468.97 203.248C1468.97 205.404 1470.77 207.392 1473.71 207.392C1475.75 207.392 1477.07 206.44 1477.77 205.348C1477.77 205.88 1477.82 206.636 1477.91 207H1481.32C1481.24 206.524 1481.15 205.544 1481.15 204.816V198.04C1481.15 195.268 1479.53 192.804 1475.16 192.804C1471.47 192.804 1469.48 195.184 1469.25 197.34L1472.56 198.04C1472.67 196.836 1473.57 195.8 1475.19 195.8C1476.76 195.8 1477.51 196.612 1477.51 197.592C1477.51 198.068 1477.26 198.46 1476.48 198.572L1473.09 199.076C1470.79 199.412 1468.97 200.784 1468.97 203.248ZM1474.49 204.62C1473.29 204.62 1472.7 203.836 1472.7 203.024C1472.7 201.96 1473.45 201.428 1474.41 201.288L1477.51 200.812V201.428C1477.51 203.864 1476.06 204.62 1474.49 204.62ZM1491.24 196.248C1493.09 196.248 1493.95 197.424 1494.29 198.572L1497.62 197.452C1497.03 195.128 1494.91 192.804 1491.15 192.804C1487.15 192.804 1484.01 195.856 1484.01 200.112C1484.01 204.34 1487.21 207.42 1491.27 207.42C1494.93 207.42 1497.09 205.068 1497.71 202.772L1494.43 201.68C1494.12 202.744 1493.17 204.004 1491.27 204.004C1489.36 204.004 1487.74 202.604 1487.74 200.112C1487.74 197.62 1489.33 196.248 1491.24 196.248ZM1513.77 193.224H1508.9L1504.14 198.348V186.728H1500.41V207H1504.14V203.36L1505.68 201.736L1509.32 207H1513.88L1508.25 199.02L1513.77 193.224ZM1453.25 251H1455.63L1456.66 245.792H1460.98V243.664H1457.06L1458.04 238.792H1462.38V236.664H1458.43L1459.52 231.148H1457.14L1456.02 236.664H1451.9L1453.02 231.148H1450.67L1449.52 236.664H1445.44V238.792H1449.19L1448.18 243.664H1444.06V245.792H1447.82L1446.78 251H1449.13L1450.17 245.792H1454.28L1453.25 251ZM1451.54 238.792H1455.68L1454.65 243.664H1450.56L1451.54 238.792ZM1471.27 251V231.148H1468.86C1468.44 233.108 1466.7 234.508 1464.18 234.564V236.496H1468.58V251H1471.27ZM1486.59 241.368C1486.45 246.352 1484.07 248.956 1480.21 248.956C1478.56 248.956 1476.91 248.312 1476.09 247.5L1475.23 249.656C1476.23 250.692 1478.33 251.364 1480.27 251.364C1486.03 251.364 1489.23 247.612 1489.23 240.304C1489.23 234.088 1486.17 230.784 1481.78 230.784C1477.69 230.812 1474.75 233.556 1474.75 237.532C1474.75 241.648 1477.83 244.084 1481.39 244.084C1483.63 244.084 1485.67 242.88 1486.59 241.368ZM1486.01 237.364C1486.01 240.024 1484.16 241.76 1481.69 241.76C1479.26 241.76 1477.35 240.108 1477.35 237.42C1477.35 234.816 1479.26 233.164 1481.67 233.164C1484.07 233.164 1485.98 234.788 1486.01 237.364ZM1498.55 251V231.148H1496.15C1495.73 233.108 1493.99 234.508 1491.47 234.564V236.496H1495.87V251H1498.55ZM1501.56 246.548H1511.08V251H1513.77V246.548H1517.19V244H1513.77V231.148H1510.3L1501.56 243.44V246.548ZM1511.08 244H1504.14L1511.08 234.144V244ZM1525.52 251V231.148H1523.11C1522.69 233.108 1520.95 234.508 1518.43 234.564V236.496H1522.83V251H1525.52ZM1528.52 246.548H1538.04V251H1540.73V246.548H1544.15V244H1540.73V231.148H1537.26L1528.52 243.44V246.548ZM1538.04 244H1531.1L1538.04 234.144V244ZM1455.94 295H1459.13L1454.4 286.684C1457.39 286.124 1459.21 283.912 1459.21 281.056C1459.21 277.78 1456.89 275.148 1453.14 275.148H1445.66V295H1448.43V286.88H1451.4L1455.94 295ZM1448.43 284.416V277.612H1452.63C1454.87 277.612 1456.38 278.956 1456.38 281.056C1456.38 283.1 1454.87 284.416 1452.63 284.416H1448.43ZM1475.7 295V292.48H1465.31C1465.59 291.192 1466.46 290.044 1467.61 289.316L1471.7 286.796C1474.02 285.34 1475.51 283.352 1475.51 280.804C1475.51 277.5 1473.07 274.784 1468.93 274.784C1464.61 274.784 1462.15 277.724 1462.15 281.168C1462.15 281.532 1462.21 282.092 1462.26 282.4L1464.87 282.512C1464.78 282.148 1464.75 281.784 1464.75 281.476C1464.75 278.9 1466.41 277.192 1469.01 277.192C1471.36 277.192 1472.82 278.844 1472.82 280.86C1472.82 282.624 1471.81 283.884 1469.88 285.116L1466.27 287.384C1463.13 289.288 1462.09 292.06 1462.04 295H1475.7ZM1478.27 289.484C1478.55 292.676 1481.3 295.364 1485.27 295.364C1489.67 295.364 1492.38 292.34 1492.38 288.672C1492.38 284.612 1489.75 282.092 1485.8 282.092C1484.35 282.092 1482.56 282.624 1481.58 283.744L1482.86 277.668H1491.46V275.148H1480.99L1478.83 285.312L1481.32 286.236C1482.19 285.116 1483.59 284.36 1485.27 284.36C1487.79 284.36 1489.67 285.956 1489.67 288.7C1489.67 291.192 1487.88 292.956 1485.27 292.956C1482.7 292.956 1480.99 291.136 1480.76 288.868L1478.27 289.484ZM1520.55 295V285.284H1511.05V287.748H1517.94C1517.83 289.792 1516.23 292.928 1511.81 292.928C1508.25 292.928 1504.89 290.324 1504.89 285.06C1504.89 279.796 1508.37 277.248 1511.92 277.248C1515 277.248 1517.33 278.928 1518.22 281.784L1520.71 280.72C1519.57 277.136 1516.23 274.728 1511.92 274.728C1507.02 274.728 1502.09 278.34 1502.09 285.06C1502.09 291.78 1506.74 295.42 1511.73 295.42C1515.06 295.42 1517.21 293.768 1518.08 292.2L1518.33 295H1520.55ZM1537.44 295V292.48H1527.06C1527.34 291.192 1528.2 290.044 1529.35 289.316L1533.44 286.796C1535.76 285.34 1537.25 283.352 1537.25 280.804C1537.25 277.5 1534.81 274.784 1530.67 274.784C1526.36 274.784 1523.89 277.724 1523.89 281.168C1523.89 281.532 1523.95 282.092 1524 282.4L1526.61 282.512C1526.52 282.148 1526.5 281.784 1526.5 281.476C1526.5 278.9 1528.15 277.192 1530.75 277.192C1533.1 277.192 1534.56 278.844 1534.56 280.86C1534.56 282.624 1533.55 283.884 1531.62 285.116L1528.01 287.384C1524.87 289.288 1523.84 292.06 1523.78 295H1537.44ZM1540.46 285.088C1540.46 289.708 1542.03 295.364 1548.13 295.364C1554.27 295.364 1555.81 289.736 1555.81 285.088C1555.81 280.384 1554.21 274.784 1548.13 274.784C1542.06 274.784 1540.46 280.384 1540.46 285.088ZM1553.09 285.088C1553.09 289.064 1552.03 292.928 1548.13 292.928C1544.24 292.928 1543.21 289.064 1543.21 285.088C1543.21 281.084 1544.21 277.248 1548.13 277.248C1552.03 277.248 1553.09 281.112 1553.09 285.088ZM1567.07 275.148V295H1574.01C1577.65 295 1580.14 292.732 1580.14 289.596C1580.14 287.384 1578.83 285.368 1576.56 284.808C1578.29 284.164 1579.53 282.652 1579.53 280.524C1579.53 277.388 1577.31 275.148 1573.53 275.148H1567.07ZM1569.81 283.828V277.556H1573.11C1575.38 277.556 1576.75 278.788 1576.75 280.664C1576.75 282.512 1575.44 283.828 1573.23 283.828H1569.81ZM1569.81 292.592V286.18H1573.73C1576.14 286.18 1577.34 287.524 1577.34 289.428C1577.34 291.36 1575.83 292.592 1573.62 292.592H1569.81ZM1596.75 295V292.48H1586.36C1586.64 291.192 1587.51 290.044 1588.66 289.316L1592.75 286.796C1595.07 285.34 1596.56 283.352 1596.56 280.804C1596.56 277.5 1594.12 274.784 1589.98 274.784C1585.66 274.784 1583.2 277.724 1583.2 281.168C1583.2 281.532 1583.26 282.092 1583.31 282.4L1585.92 282.512C1585.83 282.148 1585.8 281.784 1585.8 281.476C1585.8 278.9 1587.46 277.192 1590.06 277.192C1592.41 277.192 1593.87 278.844 1593.87 280.86C1593.87 282.624 1592.86 283.884 1590.93 285.116L1587.32 287.384C1584.18 289.288 1583.14 292.06 1583.09 295H1596.75ZM1599.77 285.088C1599.77 289.708 1601.34 295.364 1607.44 295.364C1613.57 295.364 1615.11 289.736 1615.11 285.088C1615.11 280.384 1613.52 274.784 1607.44 274.784C1601.37 274.784 1599.77 280.384 1599.77 285.088ZM1612.4 285.088C1612.4 289.064 1611.33 292.928 1607.44 292.928C1603.55 292.928 1602.51 289.064 1602.51 285.088C1602.51 281.084 1603.52 277.248 1607.44 277.248C1611.33 277.248 1612.4 281.112 1612.4 285.088ZM1454.23 339.42C1458.79 339.42 1461.93 336.76 1462.99 333.036L1460.56 332.14C1459.74 334.856 1457.62 336.9 1454.23 336.9C1450.62 336.9 1447.17 334.24 1447.17 329.06C1447.17 323.88 1450.62 321.248 1454.23 321.248C1457.48 321.248 1459.66 322.928 1460.42 325.924L1462.96 325.028C1461.96 321.192 1458.76 318.728 1454.23 318.728C1449.3 318.728 1444.37 322.424 1444.37 329.06C1444.37 335.696 1449.1 339.42 1454.23 339.42ZM1465.49 329.088C1465.49 333.708 1467.05 339.364 1473.16 339.364C1479.29 339.364 1480.83 333.736 1480.83 329.088C1480.83 324.384 1479.23 318.784 1473.16 318.784C1467.08 318.784 1465.49 324.384 1465.49 329.088ZM1478.11 329.088C1478.11 333.064 1477.05 336.928 1473.16 336.928C1469.27 336.928 1468.23 333.064 1468.23 329.088C1468.23 325.084 1469.24 321.248 1473.16 321.248C1477.05 321.248 1478.11 325.112 1478.11 329.088ZM1513.54 339V319.148H1509.87L1502.81 335.304L1495.81 319.148H1492.09V339H1494.81V323.544L1501.53 339H1504.05L1510.82 323.544V339H1513.54ZM1517.74 329.088C1517.74 333.708 1519.31 339.364 1525.41 339.364C1531.54 339.364 1533.08 333.736 1533.08 329.088C1533.08 324.384 1531.49 318.784 1525.41 318.784C1519.34 318.784 1517.74 324.384 1517.74 329.088ZM1530.37 329.088C1530.37 333.064 1529.3 336.928 1525.41 336.928C1521.52 336.928 1520.48 333.064 1520.48 329.088C1520.48 325.084 1521.49 321.248 1525.41 321.248C1529.3 321.248 1530.37 325.112 1530.37 329.088ZM1548.32 330.516V339H1551.06V330.516L1558.06 319.148H1554.92L1549.77 327.996L1544.62 319.148H1541.32L1548.32 330.516ZM1559.27 329.088C1559.27 333.708 1560.84 339.364 1566.95 339.364C1573.08 339.364 1574.62 333.736 1574.62 329.088C1574.62 324.384 1573.02 318.784 1566.95 318.784C1560.87 318.784 1559.27 324.384 1559.27 329.088ZM1571.9 329.088C1571.9 333.064 1570.84 336.928 1566.95 336.928C1563.05 336.928 1562.02 333.064 1562.02 329.088C1562.02 325.084 1563.03 321.248 1566.95 321.248C1570.84 321.248 1571.9 325.112 1571.9 329.088ZM1598.17 339H1601.64L1593.27 327.996L1601.53 319.148H1597.92L1588.62 329.368V319.148H1585.88V339H1588.62V333.008L1591.45 329.984L1598.17 339ZM1609.6 339V319.148H1607.19C1606.77 321.108 1605.03 322.508 1602.51 322.564V324.496H1606.91V339H1609.6ZM1613.28 329.088C1613.28 333.708 1614.85 339.364 1620.95 339.364C1627.08 339.364 1628.62 333.736 1628.62 329.088C1628.62 324.384 1627.03 318.784 1620.95 318.784C1614.87 318.784 1613.28 324.384 1613.28 329.088ZM1625.91 329.088C1625.91 333.064 1624.84 336.928 1620.95 336.928C1617.06 336.928 1616.02 333.064 1616.02 329.088C1616.02 325.084 1617.03 321.248 1620.95 321.248C1624.84 321.248 1625.91 325.112 1625.91 329.088ZM1631.71 329.088C1631.71 333.708 1633.28 339.364 1639.38 339.364C1645.51 339.364 1647.05 333.736 1647.05 329.088C1647.05 324.384 1645.46 318.784 1639.38 318.784C1633.3 318.784 1631.71 324.384 1631.71 329.088ZM1644.34 329.088C1644.34 333.064 1643.27 336.928 1639.38 336.928C1635.49 336.928 1634.45 333.064 1634.45 329.088C1634.45 325.084 1635.46 321.248 1639.38 321.248C1643.27 321.248 1644.34 325.112 1644.34 329.088Z" fill="#7F7F7F"/>
<circle cx="156.5" cy="251.5" r="109.5" fill="#1DB954"/>
<circle cx="736.5" cy="251.5" r="109.5" fill="white"/>
<circle cx="1301.5" cy="251.5" r="109.5" fill="#191414"/>
</svg>
